<svg width="256" height="256" viewBox="0 0 256 256" xmlns="http://www.w3.org/2000/svg">
  <!-- Background gradient -->
  <defs>
    <linearGradient id="grad1" x1="0%" y1="0%" x2="100%" y2="100%">
      <stop offset="0%" style="stop-color:#4f46e5;stop-opacity:1" />
      <stop offset="100%" style="stop-color:#7c3aed;stop-opacity:1" />
    </linearGradient>
  </defs>
  
  <!-- Background -->
  <rect width="256" height="256" rx="48" fill="url(#grad1)"/>
  
  <!-- Brain icon (representing "Think") -->
  <path d="M128 60 
           C 100 60, 80 80, 80 108
           C 80 115, 82 122, 85 128
           C 70 135, 60 150, 60 168
           C 60 190, 78 208, 100 208
           L 156 208
           C 178 208, 196 190, 196 168
           C 196 150, 186 135, 171 128
           C 174 122, 176 115, 176 108
           C 176 80, 156 60, 128 60 Z"
        fill="white" opacity="0.9"/>
  
  <!-- AI circuit pattern -->
  <g stroke="white" stroke-width="3" fill="none" opacity="0.7">
    <circle cx="95" cy="90" r="8"/>
    <circle cx="161" cy="90" r="8"/>
    <circle cx="128" cy="120" r="8"/>
    <circle cx="95" cy="150" r="8"/>
    <circle cx="161" cy="150" r="8"/>
    
    <line x1="95" y1="98" x2="95" y2="142"/>
    <line x1="161" y1="98" x2="161" y2="142"/>
    <line x1="103" y1="90" x2="120" y2="115"/>
    <line x1="153" y1="90" x2="136" y2="115"/>
    <line x1="120" y1="125" x2="103" y2="150"/>
    <line x1="136" y1="125" x2="153" y2="150"/>
  </g>
  
  <!-- AI text -->
  <text x="128" y="220" font-family="Arial, sans-serif" font-size="48" font-weight="bold" 
        text-anchor="middle" fill="white">AI</text>
</svg>
